<mxfile host="app.diagrams.net" modified="2024-02-27T12:59:36.693Z" agent="Mozilla/5.0 (Windows NT 10.0; Win64; x64) AppleWebKit/537.36 (KHTML, like Gecko) Chrome/120.0.0.0 Safari/537.36" etag="INhnqvfamGKCLESOEP6I" version="23.1.7" type="device">
  <diagram name="Page-1" id="0UWKILON6pxFKoHHIWqI">
    <mxGraphModel dx="1224" dy="735" grid="1" gridSize="10" guides="1" tooltips="1" connect="1" arrows="1" fold="1" page="1" pageScale="1" pageWidth="850" pageHeight="1100" math="0" shadow="0">
      <root>
        <mxCell id="0" />
        <mxCell id="1" parent="0" />
        <mxCell id="fhpuT0bDavN4O8SxJNnw-1" value="cliente" style="rounded=0;whiteSpace=wrap;html=1;" vertex="1" parent="1">
          <mxGeometry x="240" y="190" width="120" height="60" as="geometry" />
        </mxCell>
        <mxCell id="fhpuT0bDavN4O8SxJNnw-75" style="rounded=0;orthogonalLoop=1;jettySize=auto;html=1;exitX=1;exitY=0;exitDx=0;exitDy=0;endArrow=none;endFill=0;" edge="1" parent="1" source="fhpuT0bDavN4O8SxJNnw-2" target="fhpuT0bDavN4O8SxJNnw-1">
          <mxGeometry relative="1" as="geometry">
            <mxPoint x="139.9999999999999" y="270" as="targetPoint" />
          </mxGeometry>
        </mxCell>
        <mxCell id="fhpuT0bDavN4O8SxJNnw-2" value="id_cliente" style="ellipse;whiteSpace=wrap;html=1;" vertex="1" parent="1">
          <mxGeometry x="50" y="310" width="80" height="60" as="geometry" />
        </mxCell>
        <mxCell id="fhpuT0bDavN4O8SxJNnw-76" style="rounded=0;orthogonalLoop=1;jettySize=auto;html=1;exitX=1;exitY=0;exitDx=0;exitDy=0;endArrow=none;endFill=0;" edge="1" parent="1" source="fhpuT0bDavN4O8SxJNnw-3" target="fhpuT0bDavN4O8SxJNnw-1">
          <mxGeometry relative="1" as="geometry" />
        </mxCell>
        <mxCell id="fhpuT0bDavN4O8SxJNnw-3" value="nome" style="ellipse;whiteSpace=wrap;html=1;" vertex="1" parent="1">
          <mxGeometry x="160" y="310" width="80" height="60" as="geometry" />
        </mxCell>
        <mxCell id="fhpuT0bDavN4O8SxJNnw-4" value="endereço" style="ellipse;whiteSpace=wrap;html=1;" vertex="1" parent="1">
          <mxGeometry x="270" y="310" width="80" height="60" as="geometry" />
        </mxCell>
        <mxCell id="fhpuT0bDavN4O8SxJNnw-5" value="telefone" style="ellipse;whiteSpace=wrap;html=1;" vertex="1" parent="1">
          <mxGeometry x="370" y="310" width="80" height="60" as="geometry" />
        </mxCell>
        <mxCell id="fhpuT0bDavN4O8SxJNnw-79" style="edgeStyle=none;rounded=0;orthogonalLoop=1;jettySize=auto;html=1;exitX=0;exitY=0;exitDx=0;exitDy=0;strokeColor=default;align=center;verticalAlign=middle;fontFamily=Helvetica;fontSize=11;fontColor=default;labelBackgroundColor=default;endArrow=none;endFill=0;" edge="1" parent="1" source="fhpuT0bDavN4O8SxJNnw-6" target="fhpuT0bDavN4O8SxJNnw-1">
          <mxGeometry relative="1" as="geometry" />
        </mxCell>
        <mxCell id="fhpuT0bDavN4O8SxJNnw-6" value="email" style="ellipse;whiteSpace=wrap;html=1;" vertex="1" parent="1">
          <mxGeometry x="480" y="310" width="80" height="60" as="geometry" />
        </mxCell>
        <mxCell id="fhpuT0bDavN4O8SxJNnw-57" value="funcionário" style="rounded=0;whiteSpace=wrap;html=1;" vertex="1" parent="1">
          <mxGeometry x="780" y="190" width="120" height="60" as="geometry" />
        </mxCell>
        <mxCell id="fhpuT0bDavN4O8SxJNnw-80" style="edgeStyle=none;rounded=0;orthogonalLoop=1;jettySize=auto;html=1;exitX=0.5;exitY=0;exitDx=0;exitDy=0;entryX=0;entryY=1;entryDx=0;entryDy=0;strokeColor=default;align=center;verticalAlign=middle;fontFamily=Helvetica;fontSize=11;fontColor=default;labelBackgroundColor=default;endArrow=none;endFill=0;" edge="1" parent="1" source="fhpuT0bDavN4O8SxJNnw-58" target="fhpuT0bDavN4O8SxJNnw-57">
          <mxGeometry relative="1" as="geometry" />
        </mxCell>
        <mxCell id="fhpuT0bDavN4O8SxJNnw-58" value="id_funcionário" style="ellipse;whiteSpace=wrap;html=1;" vertex="1" parent="1">
          <mxGeometry x="640" y="310" width="80" height="60" as="geometry" />
        </mxCell>
        <mxCell id="fhpuT0bDavN4O8SxJNnw-81" style="edgeStyle=none;rounded=0;orthogonalLoop=1;jettySize=auto;html=1;exitX=0.5;exitY=0;exitDx=0;exitDy=0;strokeColor=default;align=center;verticalAlign=middle;fontFamily=Helvetica;fontSize=11;fontColor=default;labelBackgroundColor=default;endArrow=none;endFill=0;" edge="1" parent="1" source="fhpuT0bDavN4O8SxJNnw-59" target="fhpuT0bDavN4O8SxJNnw-57">
          <mxGeometry relative="1" as="geometry" />
        </mxCell>
        <mxCell id="fhpuT0bDavN4O8SxJNnw-59" value="nome" style="ellipse;whiteSpace=wrap;html=1;" vertex="1" parent="1">
          <mxGeometry x="750" y="310" width="80" height="60" as="geometry" />
        </mxCell>
        <mxCell id="fhpuT0bDavN4O8SxJNnw-82" style="edgeStyle=none;rounded=0;orthogonalLoop=1;jettySize=auto;html=1;exitX=0.5;exitY=0;exitDx=0;exitDy=0;strokeColor=default;align=center;verticalAlign=middle;fontFamily=Helvetica;fontSize=11;fontColor=default;labelBackgroundColor=default;endArrow=none;endFill=0;" edge="1" parent="1" source="fhpuT0bDavN4O8SxJNnw-60" target="fhpuT0bDavN4O8SxJNnw-57">
          <mxGeometry relative="1" as="geometry" />
        </mxCell>
        <mxCell id="fhpuT0bDavN4O8SxJNnw-60" value="cargo" style="ellipse;whiteSpace=wrap;html=1;" vertex="1" parent="1">
          <mxGeometry x="850" y="310" width="80" height="60" as="geometry" />
        </mxCell>
        <mxCell id="fhpuT0bDavN4O8SxJNnw-83" style="edgeStyle=none;rounded=0;orthogonalLoop=1;jettySize=auto;html=1;exitX=0.5;exitY=0;exitDx=0;exitDy=0;strokeColor=default;align=center;verticalAlign=middle;fontFamily=Helvetica;fontSize=11;fontColor=default;labelBackgroundColor=default;endArrow=none;endFill=0;" edge="1" parent="1" source="fhpuT0bDavN4O8SxJNnw-61" target="fhpuT0bDavN4O8SxJNnw-57">
          <mxGeometry relative="1" as="geometry" />
        </mxCell>
        <mxCell id="fhpuT0bDavN4O8SxJNnw-61" value="salário" style="ellipse;whiteSpace=wrap;html=1;" vertex="1" parent="1">
          <mxGeometry x="960" y="310" width="80" height="60" as="geometry" />
        </mxCell>
        <mxCell id="fhpuT0bDavN4O8SxJNnw-62" value="veiculo" style="rounded=0;whiteSpace=wrap;html=1;" vertex="1" parent="1">
          <mxGeometry x="1310" y="190" width="120" height="60" as="geometry" />
        </mxCell>
        <mxCell id="fhpuT0bDavN4O8SxJNnw-63" value="id_veiculo" style="ellipse;whiteSpace=wrap;html=1;" vertex="1" parent="1">
          <mxGeometry x="1110" y="310" width="80" height="60" as="geometry" />
        </mxCell>
        <mxCell id="fhpuT0bDavN4O8SxJNnw-64" value="placa" style="ellipse;whiteSpace=wrap;html=1;" vertex="1" parent="1">
          <mxGeometry x="1220" y="310" width="80" height="60" as="geometry" />
        </mxCell>
        <mxCell id="fhpuT0bDavN4O8SxJNnw-65" value="modelo" style="ellipse;whiteSpace=wrap;html=1;" vertex="1" parent="1">
          <mxGeometry x="1330" y="310" width="80" height="60" as="geometry" />
        </mxCell>
        <mxCell id="fhpuT0bDavN4O8SxJNnw-66" value="capacidade" style="ellipse;whiteSpace=wrap;html=1;" vertex="1" parent="1">
          <mxGeometry x="1430" y="310" width="80" height="60" as="geometry" />
        </mxCell>
        <mxCell id="fhpuT0bDavN4O8SxJNnw-67" value="rotas" style="ellipse;whiteSpace=wrap;html=1;" vertex="1" parent="1">
          <mxGeometry x="1540" y="310" width="80" height="60" as="geometry" />
        </mxCell>
        <mxCell id="fhpuT0bDavN4O8SxJNnw-70" value="" style="endArrow=none;html=1;rounded=0;entryX=0;entryY=1;entryDx=0;entryDy=0;exitX=1;exitY=0;exitDx=0;exitDy=0;" edge="1" parent="1" source="fhpuT0bDavN4O8SxJNnw-63" target="fhpuT0bDavN4O8SxJNnw-62">
          <mxGeometry width="50" height="50" relative="1" as="geometry">
            <mxPoint x="1170" y="320" as="sourcePoint" />
            <mxPoint x="1220" y="270" as="targetPoint" />
          </mxGeometry>
        </mxCell>
        <mxCell id="fhpuT0bDavN4O8SxJNnw-71" value="" style="endArrow=none;html=1;rounded=0;" edge="1" parent="1" target="fhpuT0bDavN4O8SxJNnw-62">
          <mxGeometry width="50" height="50" relative="1" as="geometry">
            <mxPoint x="1275" y="310" as="sourcePoint" />
            <mxPoint x="1325" y="260" as="targetPoint" />
          </mxGeometry>
        </mxCell>
        <mxCell id="fhpuT0bDavN4O8SxJNnw-72" value="" style="endArrow=none;html=1;rounded=0;entryX=0.5;entryY=1;entryDx=0;entryDy=0;exitX=0.5;exitY=0;exitDx=0;exitDy=0;" edge="1" parent="1" source="fhpuT0bDavN4O8SxJNnw-65" target="fhpuT0bDavN4O8SxJNnw-62">
          <mxGeometry width="50" height="50" relative="1" as="geometry">
            <mxPoint x="1350" y="280" as="sourcePoint" />
            <mxPoint x="1409" y="222" as="targetPoint" />
          </mxGeometry>
        </mxCell>
        <mxCell id="fhpuT0bDavN4O8SxJNnw-73" value="" style="endArrow=none;html=1;rounded=0;" edge="1" parent="1" target="fhpuT0bDavN4O8SxJNnw-62">
          <mxGeometry width="50" height="50" relative="1" as="geometry">
            <mxPoint x="1451" y="310" as="sourcePoint" />
            <mxPoint x="1510" y="252" as="targetPoint" />
          </mxGeometry>
        </mxCell>
        <mxCell id="fhpuT0bDavN4O8SxJNnw-74" value="" style="endArrow=none;html=1;rounded=0;" edge="1" parent="1" source="fhpuT0bDavN4O8SxJNnw-67" target="fhpuT0bDavN4O8SxJNnw-62">
          <mxGeometry width="50" height="50" relative="1" as="geometry">
            <mxPoint x="1550" y="310" as="sourcePoint" />
            <mxPoint x="1600" y="260" as="targetPoint" />
            <Array as="points" />
          </mxGeometry>
        </mxCell>
        <mxCell id="fhpuT0bDavN4O8SxJNnw-77" style="edgeStyle=none;rounded=0;orthogonalLoop=1;jettySize=auto;html=1;exitX=0.5;exitY=0;exitDx=0;exitDy=0;strokeColor=default;align=center;verticalAlign=middle;fontFamily=Helvetica;fontSize=11;fontColor=default;labelBackgroundColor=default;endArrow=none;endFill=0;" edge="1" parent="1" source="fhpuT0bDavN4O8SxJNnw-4" target="fhpuT0bDavN4O8SxJNnw-1">
          <mxGeometry relative="1" as="geometry" />
        </mxCell>
        <mxCell id="fhpuT0bDavN4O8SxJNnw-78" style="edgeStyle=none;rounded=0;orthogonalLoop=1;jettySize=auto;html=1;exitX=0.5;exitY=0;exitDx=0;exitDy=0;strokeColor=default;align=center;verticalAlign=middle;fontFamily=Helvetica;fontSize=11;fontColor=default;labelBackgroundColor=default;endArrow=none;endFill=0;" edge="1" parent="1" source="fhpuT0bDavN4O8SxJNnw-5">
          <mxGeometry relative="1" as="geometry">
            <mxPoint x="340" y="250" as="targetPoint" />
          </mxGeometry>
        </mxCell>
        <mxCell id="fhpuT0bDavN4O8SxJNnw-84" value="rotas" style="rounded=0;whiteSpace=wrap;html=1;" vertex="1" parent="1">
          <mxGeometry x="1820" y="190" width="120" height="60" as="geometry" />
        </mxCell>
        <mxCell id="fhpuT0bDavN4O8SxJNnw-85" value="id_rotas" style="ellipse;whiteSpace=wrap;html=1;" vertex="1" parent="1">
          <mxGeometry x="1680" y="310" width="80" height="60" as="geometry" />
        </mxCell>
        <mxCell id="fhpuT0bDavN4O8SxJNnw-86" value="origem" style="ellipse;whiteSpace=wrap;html=1;" vertex="1" parent="1">
          <mxGeometry x="1790" y="310" width="80" height="60" as="geometry" />
        </mxCell>
        <mxCell id="fhpuT0bDavN4O8SxJNnw-87" value="destino" style="ellipse;whiteSpace=wrap;html=1;" vertex="1" parent="1">
          <mxGeometry x="1900" y="310" width="80" height="60" as="geometry" />
        </mxCell>
        <mxCell id="fhpuT0bDavN4O8SxJNnw-88" value="distancia entrega" style="ellipse;whiteSpace=wrap;html=1;" vertex="1" parent="1">
          <mxGeometry x="2000" y="310" width="80" height="60" as="geometry" />
        </mxCell>
        <mxCell id="fhpuT0bDavN4O8SxJNnw-90" value="" style="endArrow=none;html=1;rounded=0;entryX=0;entryY=1;entryDx=0;entryDy=0;exitX=1;exitY=0;exitDx=0;exitDy=0;" edge="1" parent="1" source="fhpuT0bDavN4O8SxJNnw-85" target="fhpuT0bDavN4O8SxJNnw-84">
          <mxGeometry width="50" height="50" relative="1" as="geometry">
            <mxPoint x="1740" y="320" as="sourcePoint" />
            <mxPoint x="1790" y="270" as="targetPoint" />
          </mxGeometry>
        </mxCell>
        <mxCell id="fhpuT0bDavN4O8SxJNnw-91" value="" style="endArrow=none;html=1;rounded=0;" edge="1" parent="1" target="fhpuT0bDavN4O8SxJNnw-84">
          <mxGeometry width="50" height="50" relative="1" as="geometry">
            <mxPoint x="1845" y="310" as="sourcePoint" />
            <mxPoint x="1895" y="260" as="targetPoint" />
          </mxGeometry>
        </mxCell>
        <mxCell id="fhpuT0bDavN4O8SxJNnw-92" value="" style="endArrow=none;html=1;rounded=0;entryX=0.5;entryY=1;entryDx=0;entryDy=0;exitX=0.5;exitY=0;exitDx=0;exitDy=0;" edge="1" parent="1" source="fhpuT0bDavN4O8SxJNnw-87" target="fhpuT0bDavN4O8SxJNnw-84">
          <mxGeometry width="50" height="50" relative="1" as="geometry">
            <mxPoint x="1920" y="280" as="sourcePoint" />
            <mxPoint x="1979" y="222" as="targetPoint" />
          </mxGeometry>
        </mxCell>
        <mxCell id="fhpuT0bDavN4O8SxJNnw-93" value="" style="endArrow=none;html=1;rounded=0;" edge="1" parent="1" target="fhpuT0bDavN4O8SxJNnw-84">
          <mxGeometry width="50" height="50" relative="1" as="geometry">
            <mxPoint x="2021" y="310" as="sourcePoint" />
            <mxPoint x="2080" y="252" as="targetPoint" />
          </mxGeometry>
        </mxCell>
        <mxCell id="fhpuT0bDavN4O8SxJNnw-98" style="edgeStyle=none;rounded=0;orthogonalLoop=1;jettySize=auto;html=1;exitX=1;exitY=0.5;exitDx=0;exitDy=0;strokeColor=default;align=center;verticalAlign=middle;fontFamily=Helvetica;fontSize=11;fontColor=default;labelBackgroundColor=default;endArrow=none;endFill=0;" edge="1" parent="1" source="fhpuT0bDavN4O8SxJNnw-95" target="fhpuT0bDavN4O8SxJNnw-84">
          <mxGeometry relative="1" as="geometry" />
        </mxCell>
        <mxCell id="fhpuT0bDavN4O8SxJNnw-99" style="edgeStyle=none;rounded=0;orthogonalLoop=1;jettySize=auto;html=1;exitX=0;exitY=0.5;exitDx=0;exitDy=0;strokeColor=default;align=center;verticalAlign=middle;fontFamily=Helvetica;fontSize=11;fontColor=default;labelBackgroundColor=default;endArrow=none;endFill=0;" edge="1" parent="1" source="fhpuT0bDavN4O8SxJNnw-95" target="fhpuT0bDavN4O8SxJNnw-62">
          <mxGeometry relative="1" as="geometry" />
        </mxCell>
        <mxCell id="fhpuT0bDavN4O8SxJNnw-95" value="possui" style="rhombus;whiteSpace=wrap;html=1;fontFamily=Helvetica;fontSize=11;fontColor=default;labelBackgroundColor=default;" vertex="1" parent="1">
          <mxGeometry x="1590" y="180" width="110" height="80" as="geometry" />
        </mxCell>
        <mxCell id="fhpuT0bDavN4O8SxJNnw-103" style="edgeStyle=none;rounded=0;orthogonalLoop=1;jettySize=auto;html=1;exitX=1;exitY=0.5;exitDx=0;exitDy=0;strokeColor=default;align=center;verticalAlign=middle;fontFamily=Helvetica;fontSize=11;fontColor=default;labelBackgroundColor=default;endArrow=none;endFill=0;" edge="1" parent="1">
          <mxGeometry relative="1" as="geometry">
            <mxPoint x="1150" y="220" as="sourcePoint" />
            <mxPoint x="1150" y="220" as="targetPoint" />
          </mxGeometry>
        </mxCell>
      </root>
    </mxGraphModel>
  </diagram>
</mxfile>
